<mxfile host="app.diagrams.net" modified="2020-09-26T02:36:36.081Z" agent="5.0 (Windows)" etag="JPAgB5gKYBFeXjcMZmMc" version="13.6.6" type="github">
  <diagram id="ournAG2Iq5no_DVx5JI3" name="Page-1">
    <mxGraphModel dx="1038" dy="575" grid="1" gridSize="10" guides="1" tooltips="1" connect="1" arrows="1" fold="1" page="1" pageScale="1" pageWidth="850" pageHeight="1100" math="0" shadow="0">
      <root>
        <mxCell id="0" />
        <mxCell id="1" parent="0" />
        <mxCell id="oQQAV7WlmfNfY7A_2i-B-12" style="edgeStyle=orthogonalEdgeStyle;rounded=0;orthogonalLoop=1;jettySize=auto;html=1;exitX=0.5;exitY=0.5;exitDx=0;exitDy=0;exitPerimeter=0;" edge="1" parent="1" source="oQQAV7WlmfNfY7A_2i-B-1" target="oQQAV7WlmfNfY7A_2i-B-11">
          <mxGeometry relative="1" as="geometry">
            <Array as="points">
              <mxPoint x="120" y="300" />
              <mxPoint x="120" y="180" />
            </Array>
          </mxGeometry>
        </mxCell>
        <mxCell id="oQQAV7WlmfNfY7A_2i-B-13" style="edgeStyle=orthogonalEdgeStyle;rounded=0;orthogonalLoop=1;jettySize=auto;html=1;exitX=0.5;exitY=0.5;exitDx=0;exitDy=0;exitPerimeter=0;" edge="1" parent="1" source="oQQAV7WlmfNfY7A_2i-B-1" target="oQQAV7WlmfNfY7A_2i-B-10">
          <mxGeometry relative="1" as="geometry">
            <Array as="points">
              <mxPoint x="120" y="300" />
              <mxPoint x="120" y="240" />
            </Array>
          </mxGeometry>
        </mxCell>
        <mxCell id="oQQAV7WlmfNfY7A_2i-B-37" style="edgeStyle=orthogonalEdgeStyle;rounded=0;orthogonalLoop=1;jettySize=auto;html=1;exitX=0.5;exitY=0.5;exitDx=0;exitDy=0;exitPerimeter=0;entryX=0;entryY=0.5;entryDx=0;entryDy=0;" edge="1" parent="1" source="oQQAV7WlmfNfY7A_2i-B-1" target="oQQAV7WlmfNfY7A_2i-B-36">
          <mxGeometry relative="1" as="geometry" />
        </mxCell>
        <mxCell id="oQQAV7WlmfNfY7A_2i-B-48" style="edgeStyle=orthogonalEdgeStyle;rounded=0;orthogonalLoop=1;jettySize=auto;html=1;exitX=0.5;exitY=0.5;exitDx=0;exitDy=0;exitPerimeter=0;entryX=0;entryY=0.5;entryDx=0;entryDy=0;" edge="1" parent="1" source="oQQAV7WlmfNfY7A_2i-B-1" target="oQQAV7WlmfNfY7A_2i-B-44">
          <mxGeometry relative="1" as="geometry" />
        </mxCell>
        <mxCell id="oQQAV7WlmfNfY7A_2i-B-50" style="edgeStyle=orthogonalEdgeStyle;rounded=0;orthogonalLoop=1;jettySize=auto;html=1;exitX=0.5;exitY=0.5;exitDx=0;exitDy=0;exitPerimeter=0;entryX=0;entryY=0.5;entryDx=0;entryDy=0;" edge="1" parent="1" source="oQQAV7WlmfNfY7A_2i-B-1" target="oQQAV7WlmfNfY7A_2i-B-49">
          <mxGeometry relative="1" as="geometry" />
        </mxCell>
        <mxCell id="oQQAV7WlmfNfY7A_2i-B-1" value="Actor" style="shape=umlActor;verticalLabelPosition=bottom;verticalAlign=top;html=1;outlineConnect=0;" vertex="1" parent="1">
          <mxGeometry x="40" y="260" width="40" height="80" as="geometry" />
        </mxCell>
        <mxCell id="oQQAV7WlmfNfY7A_2i-B-5" value="" style="shape=cylinder2;whiteSpace=wrap;html=1;boundedLbl=1;backgroundOutline=1;size=15;" vertex="1" parent="1">
          <mxGeometry x="760" y="280" width="40" height="80" as="geometry" />
        </mxCell>
        <mxCell id="oQQAV7WlmfNfY7A_2i-B-6" value="MySQL Database Server" style="text;html=1;strokeColor=none;fillColor=none;align=center;verticalAlign=middle;whiteSpace=wrap;rounded=0;" vertex="1" parent="1">
          <mxGeometry x="720" y="360" width="120" height="40" as="geometry" />
        </mxCell>
        <mxCell id="oQQAV7WlmfNfY7A_2i-B-33" style="edgeStyle=orthogonalEdgeStyle;rounded=0;orthogonalLoop=1;jettySize=auto;html=1;exitX=1;exitY=0.5;exitDx=0;exitDy=0;" edge="1" parent="1" source="oQQAV7WlmfNfY7A_2i-B-10" target="oQQAV7WlmfNfY7A_2i-B-32">
          <mxGeometry relative="1" as="geometry" />
        </mxCell>
        <mxCell id="oQQAV7WlmfNfY7A_2i-B-10" value="Login" style="ellipse;whiteSpace=wrap;html=1;" vertex="1" parent="1">
          <mxGeometry x="160" y="220" width="120" height="40" as="geometry" />
        </mxCell>
        <mxCell id="oQQAV7WlmfNfY7A_2i-B-29" style="edgeStyle=orthogonalEdgeStyle;rounded=0;orthogonalLoop=1;jettySize=auto;html=1;exitX=1;exitY=0.5;exitDx=0;exitDy=0;" edge="1" parent="1" source="oQQAV7WlmfNfY7A_2i-B-11" target="oQQAV7WlmfNfY7A_2i-B-28">
          <mxGeometry relative="1" as="geometry" />
        </mxCell>
        <mxCell id="oQQAV7WlmfNfY7A_2i-B-11" value="Register" style="ellipse;whiteSpace=wrap;html=1;" vertex="1" parent="1">
          <mxGeometry x="160" y="160" width="120" height="40" as="geometry" />
        </mxCell>
        <mxCell id="oQQAV7WlmfNfY7A_2i-B-75" style="edgeStyle=orthogonalEdgeStyle;rounded=0;orthogonalLoop=1;jettySize=auto;html=1;exitX=1;exitY=0.5;exitDx=0;exitDy=0;endArrow=none;endFill=0;" edge="1" parent="1" source="oQQAV7WlmfNfY7A_2i-B-17">
          <mxGeometry relative="1" as="geometry">
            <mxPoint x="720" y="240" as="targetPoint" />
          </mxGeometry>
        </mxCell>
        <mxCell id="oQQAV7WlmfNfY7A_2i-B-14" value="Username Taken" style="ellipse;whiteSpace=wrap;html=1;" vertex="1" parent="1">
          <mxGeometry x="400" y="60" width="120" height="40" as="geometry" />
        </mxCell>
        <mxCell id="oQQAV7WlmfNfY7A_2i-B-72" style="edgeStyle=orthogonalEdgeStyle;rounded=0;orthogonalLoop=1;jettySize=auto;html=1;exitX=0.5;exitY=0;exitDx=0;exitDy=0;entryX=0.5;entryY=1;entryDx=0;entryDy=0;endArrow=classic;endFill=1;" edge="1" parent="1" source="oQQAV7WlmfNfY7A_2i-B-17" target="oQQAV7WlmfNfY7A_2i-B-20">
          <mxGeometry relative="1" as="geometry" />
        </mxCell>
        <mxCell id="oQQAV7WlmfNfY7A_2i-B-17" value="Enter User Info" style="ellipse;whiteSpace=wrap;html=1;" vertex="1" parent="1">
          <mxGeometry x="400" y="160" width="120" height="40" as="geometry" />
        </mxCell>
        <mxCell id="oQQAV7WlmfNfY7A_2i-B-73" style="edgeStyle=orthogonalEdgeStyle;rounded=0;orthogonalLoop=1;jettySize=auto;html=1;exitX=0.5;exitY=0;exitDx=0;exitDy=0;entryX=0.5;entryY=1;entryDx=0;entryDy=0;endArrow=classic;endFill=1;" edge="1" parent="1" source="oQQAV7WlmfNfY7A_2i-B-20" target="oQQAV7WlmfNfY7A_2i-B-14">
          <mxGeometry relative="1" as="geometry" />
        </mxCell>
        <mxCell id="oQQAV7WlmfNfY7A_2i-B-20" value="&amp;lt;&amp;lt;extends&amp;gt;&amp;gt;" style="text;html=1;strokeColor=none;fillColor=none;align=center;verticalAlign=middle;whiteSpace=wrap;rounded=0;" vertex="1" parent="1">
          <mxGeometry x="420" y="120" width="80" height="20" as="geometry" />
        </mxCell>
        <mxCell id="oQQAV7WlmfNfY7A_2i-B-22" style="edgeStyle=orthogonalEdgeStyle;rounded=0;orthogonalLoop=1;jettySize=auto;html=1;exitX=0.5;exitY=1;exitDx=0;exitDy=0;" edge="1" parent="1" source="oQQAV7WlmfNfY7A_2i-B-20" target="oQQAV7WlmfNfY7A_2i-B-20">
          <mxGeometry relative="1" as="geometry" />
        </mxCell>
        <mxCell id="oQQAV7WlmfNfY7A_2i-B-69" style="edgeStyle=orthogonalEdgeStyle;rounded=0;orthogonalLoop=1;jettySize=auto;html=1;exitX=1;exitY=0.5;exitDx=0;exitDy=0;entryX=0;entryY=0.5;entryDx=0;entryDy=0;endArrow=none;endFill=0;" edge="1" parent="1" source="oQQAV7WlmfNfY7A_2i-B-28" target="oQQAV7WlmfNfY7A_2i-B-17">
          <mxGeometry relative="1" as="geometry" />
        </mxCell>
        <mxCell id="oQQAV7WlmfNfY7A_2i-B-28" value="&amp;lt;&amp;lt;include&amp;gt;&amp;gt;" style="text;html=1;strokeColor=none;fillColor=none;align=center;verticalAlign=middle;whiteSpace=wrap;rounded=0;" vertex="1" parent="1">
          <mxGeometry x="300" y="170" width="80" height="20" as="geometry" />
        </mxCell>
        <mxCell id="oQQAV7WlmfNfY7A_2i-B-79" style="edgeStyle=orthogonalEdgeStyle;rounded=0;orthogonalLoop=1;jettySize=auto;html=1;exitX=1;exitY=0.5;exitDx=0;exitDy=0;endArrow=none;endFill=0;" edge="1" parent="1" source="oQQAV7WlmfNfY7A_2i-B-31">
          <mxGeometry relative="1" as="geometry">
            <mxPoint x="720" y="330" as="targetPoint" />
          </mxGeometry>
        </mxCell>
        <mxCell id="oQQAV7WlmfNfY7A_2i-B-31" value="Enter Password" style="ellipse;whiteSpace=wrap;html=1;" vertex="1" parent="1">
          <mxGeometry x="400" y="220" width="120" height="40" as="geometry" />
        </mxCell>
        <mxCell id="oQQAV7WlmfNfY7A_2i-B-34" style="edgeStyle=orthogonalEdgeStyle;rounded=0;orthogonalLoop=1;jettySize=auto;html=1;exitX=1;exitY=0.5;exitDx=0;exitDy=0;entryX=0;entryY=0.5;entryDx=0;entryDy=0;" edge="1" parent="1" source="oQQAV7WlmfNfY7A_2i-B-32" target="oQQAV7WlmfNfY7A_2i-B-31">
          <mxGeometry relative="1" as="geometry" />
        </mxCell>
        <mxCell id="oQQAV7WlmfNfY7A_2i-B-32" value="&amp;lt;&amp;lt;include&amp;gt;&amp;gt;" style="text;html=1;strokeColor=none;fillColor=none;align=center;verticalAlign=middle;whiteSpace=wrap;rounded=0;" vertex="1" parent="1">
          <mxGeometry x="300" y="230" width="80" height="20" as="geometry" />
        </mxCell>
        <mxCell id="oQQAV7WlmfNfY7A_2i-B-41" style="edgeStyle=orthogonalEdgeStyle;rounded=0;orthogonalLoop=1;jettySize=auto;html=1;exitX=1;exitY=0.5;exitDx=0;exitDy=0;" edge="1" parent="1" source="oQQAV7WlmfNfY7A_2i-B-36" target="oQQAV7WlmfNfY7A_2i-B-40">
          <mxGeometry relative="1" as="geometry" />
        </mxCell>
        <mxCell id="oQQAV7WlmfNfY7A_2i-B-78" style="edgeStyle=orthogonalEdgeStyle;rounded=0;orthogonalLoop=1;jettySize=auto;html=1;exitX=0.5;exitY=0;exitDx=0;exitDy=0;endArrow=none;endFill=0;" edge="1" parent="1" source="oQQAV7WlmfNfY7A_2i-B-36">
          <mxGeometry relative="1" as="geometry">
            <mxPoint x="720" y="270" as="targetPoint" />
            <Array as="points">
              <mxPoint x="220" y="270" />
            </Array>
          </mxGeometry>
        </mxCell>
        <mxCell id="oQQAV7WlmfNfY7A_2i-B-36" value="Add Contact" style="ellipse;whiteSpace=wrap;html=1;" vertex="1" parent="1">
          <mxGeometry x="160" y="280" width="120" height="40" as="geometry" />
        </mxCell>
        <mxCell id="oQQAV7WlmfNfY7A_2i-B-38" value="Enter Contact Info" style="ellipse;whiteSpace=wrap;html=1;" vertex="1" parent="1">
          <mxGeometry x="400" y="280" width="120" height="40" as="geometry" />
        </mxCell>
        <mxCell id="oQQAV7WlmfNfY7A_2i-B-42" style="edgeStyle=orthogonalEdgeStyle;rounded=0;orthogonalLoop=1;jettySize=auto;html=1;exitX=1;exitY=0.5;exitDx=0;exitDy=0;entryX=0;entryY=0.5;entryDx=0;entryDy=0;" edge="1" parent="1" source="oQQAV7WlmfNfY7A_2i-B-40" target="oQQAV7WlmfNfY7A_2i-B-38">
          <mxGeometry relative="1" as="geometry" />
        </mxCell>
        <mxCell id="oQQAV7WlmfNfY7A_2i-B-40" value="&amp;lt;&amp;lt;include&amp;gt;&amp;gt;" style="text;html=1;strokeColor=none;fillColor=none;align=center;verticalAlign=middle;whiteSpace=wrap;rounded=0;" vertex="1" parent="1">
          <mxGeometry x="300" y="290" width="80" height="20" as="geometry" />
        </mxCell>
        <mxCell id="oQQAV7WlmfNfY7A_2i-B-46" style="edgeStyle=orthogonalEdgeStyle;rounded=0;orthogonalLoop=1;jettySize=auto;html=1;exitX=1;exitY=0.5;exitDx=0;exitDy=0;" edge="1" parent="1" source="oQQAV7WlmfNfY7A_2i-B-44" target="oQQAV7WlmfNfY7A_2i-B-45">
          <mxGeometry relative="1" as="geometry" />
        </mxCell>
        <mxCell id="oQQAV7WlmfNfY7A_2i-B-67" style="edgeStyle=orthogonalEdgeStyle;rounded=0;orthogonalLoop=1;jettySize=auto;html=1;exitX=0.5;exitY=0;exitDx=0;exitDy=0;" edge="1" parent="1" source="oQQAV7WlmfNfY7A_2i-B-44" target="oQQAV7WlmfNfY7A_2i-B-5">
          <mxGeometry relative="1" as="geometry">
            <mxPoint x="220" y="330" as="targetPoint" />
            <Array as="points">
              <mxPoint x="220" y="330" />
            </Array>
          </mxGeometry>
        </mxCell>
        <mxCell id="oQQAV7WlmfNfY7A_2i-B-44" value="Edit Contact" style="ellipse;whiteSpace=wrap;html=1;" vertex="1" parent="1">
          <mxGeometry x="160" y="340" width="120" height="40" as="geometry" />
        </mxCell>
        <mxCell id="oQQAV7WlmfNfY7A_2i-B-56" style="edgeStyle=orthogonalEdgeStyle;rounded=0;orthogonalLoop=1;jettySize=auto;html=1;exitX=1;exitY=0.5;exitDx=0;exitDy=0;entryX=0.5;entryY=1;entryDx=0;entryDy=0;" edge="1" parent="1" source="oQQAV7WlmfNfY7A_2i-B-45" target="oQQAV7WlmfNfY7A_2i-B-38">
          <mxGeometry relative="1" as="geometry" />
        </mxCell>
        <mxCell id="oQQAV7WlmfNfY7A_2i-B-58" style="edgeStyle=orthogonalEdgeStyle;rounded=0;orthogonalLoop=1;jettySize=auto;html=1;exitX=0.5;exitY=1;exitDx=0;exitDy=0;entryX=0;entryY=0;entryDx=0;entryDy=0;" edge="1" parent="1" source="oQQAV7WlmfNfY7A_2i-B-45" target="oQQAV7WlmfNfY7A_2i-B-51">
          <mxGeometry relative="1" as="geometry">
            <Array as="points">
              <mxPoint x="340" y="380" />
              <mxPoint x="418" y="380" />
            </Array>
          </mxGeometry>
        </mxCell>
        <mxCell id="oQQAV7WlmfNfY7A_2i-B-45" value="&amp;lt;&amp;lt;include&amp;gt;&amp;gt;" style="text;html=1;strokeColor=none;fillColor=none;align=center;verticalAlign=middle;whiteSpace=wrap;rounded=0;" vertex="1" parent="1">
          <mxGeometry x="300" y="350" width="80" height="20" as="geometry" />
        </mxCell>
        <mxCell id="oQQAV7WlmfNfY7A_2i-B-61" style="edgeStyle=orthogonalEdgeStyle;rounded=0;orthogonalLoop=1;jettySize=auto;html=1;exitX=1;exitY=0.5;exitDx=0;exitDy=0;entryX=0;entryY=0.5;entryDx=0;entryDy=0;" edge="1" parent="1" source="oQQAV7WlmfNfY7A_2i-B-49" target="oQQAV7WlmfNfY7A_2i-B-60">
          <mxGeometry relative="1" as="geometry" />
        </mxCell>
        <mxCell id="oQQAV7WlmfNfY7A_2i-B-68" style="edgeStyle=orthogonalEdgeStyle;rounded=0;orthogonalLoop=1;jettySize=auto;html=1;exitX=0.5;exitY=0;exitDx=0;exitDy=0;endArrow=none;endFill=0;" edge="1" parent="1" source="oQQAV7WlmfNfY7A_2i-B-49">
          <mxGeometry relative="1" as="geometry">
            <mxPoint x="720" y="330" as="targetPoint" />
            <Array as="points">
              <mxPoint x="220" y="390" />
              <mxPoint x="720" y="390" />
            </Array>
          </mxGeometry>
        </mxCell>
        <mxCell id="oQQAV7WlmfNfY7A_2i-B-49" value="Delete Contact" style="ellipse;whiteSpace=wrap;html=1;" vertex="1" parent="1">
          <mxGeometry x="160" y="400" width="120" height="40" as="geometry" />
        </mxCell>
        <mxCell id="oQQAV7WlmfNfY7A_2i-B-54" style="edgeStyle=orthogonalEdgeStyle;rounded=0;orthogonalLoop=1;jettySize=auto;html=1;exitX=0.5;exitY=0;exitDx=0;exitDy=0;" edge="1" parent="1" source="oQQAV7WlmfNfY7A_2i-B-51">
          <mxGeometry relative="1" as="geometry">
            <mxPoint x="460" y="400" as="targetPoint" />
          </mxGeometry>
        </mxCell>
        <mxCell id="oQQAV7WlmfNfY7A_2i-B-51" value="Select Contact" style="ellipse;whiteSpace=wrap;html=1;" vertex="1" parent="1">
          <mxGeometry x="400" y="400" width="120" height="40" as="geometry" />
        </mxCell>
        <mxCell id="oQQAV7WlmfNfY7A_2i-B-62" style="edgeStyle=orthogonalEdgeStyle;rounded=0;orthogonalLoop=1;jettySize=auto;html=1;exitX=1;exitY=0.5;exitDx=0;exitDy=0;entryX=0;entryY=0.5;entryDx=0;entryDy=0;" edge="1" parent="1" source="oQQAV7WlmfNfY7A_2i-B-60" target="oQQAV7WlmfNfY7A_2i-B-51">
          <mxGeometry relative="1" as="geometry" />
        </mxCell>
        <mxCell id="oQQAV7WlmfNfY7A_2i-B-60" value="&amp;lt;&amp;lt;include&amp;gt;&amp;gt;" style="text;html=1;strokeColor=none;fillColor=none;align=center;verticalAlign=middle;whiteSpace=wrap;rounded=0;" vertex="1" parent="1">
          <mxGeometry x="300" y="410" width="80" height="20" as="geometry" />
        </mxCell>
      </root>
    </mxGraphModel>
  </diagram>
</mxfile>
